<?xml version="1.0" encoding="UTF-8"?>
<!-- Generated by Pixelmator Pro 3.5.7 -->
<svg width="770" height="145" viewBox="0 0 770 145" xmlns="http://www.w3.org/2000/svg">
    <g id="Group"/>
    <filter id="filter1" x="0" y="0" width="770" height="145" filterUnits="userSpaceOnUse" primitiveUnits="userSpaceOnUse" color-interpolation-filters="sRGB">
        <feFlood flood-color="#000000" flood-opacity="0.5"/>
        <feComposite in2="SourceGraphic" operator="out"/>
        <feGaussianBlur stdDeviation="5"/>
        <feOffset dx="0" dy="1"/>
        <feComposite in2="SourceGraphic" operator="atop"/>
    </filter>
    <path id="Ruby-On-Rails" fill="#cc0000" fill-rule="evenodd" stroke="#9d0c01" stroke-width="0.5" filter="url(#filter1)" d="M 251.533203 141.949219 C 250.444656 141.949219 249.570969 141.942062 248.912109 141.927734 C 248.25325 141.913406 247.264984 141.863281 245.947266 141.777344 L 245.947266 131.980469 L 247.494141 132.066406 C 248.697266 132.123703 249.843094 132.080734 250.931641 131.9375 C 252.020187 131.794266 252.936844 131.464844 253.681641 130.949219 C 254.397797 130.462234 255.063797 129.445313 255.679688 127.898438 C 256.295563 126.351555 256.546234 125.40625 256.431641 125.0625 L 239.244141 76.164063 L 252.865234 76.164063 L 263.091797 110.710938 L 272.759766 76.164063 L 285.779297 76.164063 L 269.708984 122.226563 C 266.615204 131.106812 264.166016 136.613922 262.361328 138.748047 C 260.556641 140.882172 256.947296 141.949219 251.533203 141.949219 Z M 346.451172 124.761719 C 337.399048 124.761719 330.48114 122.298195 325.697266 117.371094 C 319.280579 111.326797 316.072266 102.61853 316.072266 91.246094 C 316.072266 79.644485 319.280579 70.936218 325.697266 65.121094 C 330.48114 60.193993 337.399048 57.730469 346.451172 57.730469 C 355.503296 57.730469 362.421204 60.193993 367.205078 65.121094 C 373.59314 70.936218 376.787109 79.644485 376.787109 91.246094 C 376.787109 102.61853 373.59314 111.326797 367.205078 117.371094 C 362.421204 122.298195 355.503296 124.761719 346.451172 124.761719 Z M 644.181641 124.589844 C 636.819641 124.589844 631.384155 123.03582 627.875 119.927734 C 624.365845 116.819649 622.611328 112.85939 622.611328 108.046875 L 635.029297 108.046875 C 635.287109 110.223969 635.845703 111.770828 636.705078 112.6875 C 638.223328 114.32032 641.030579 115.136719 645.126953 115.136719 C 647.533203 115.136719 649.445313 114.778648 650.863281 114.0625 C 652.28125 113.346352 652.990234 112.272141 652.990234 110.839844 C 652.990234 109.464836 652.417297 108.419273 651.271484 107.703125 C 650.125671 106.986977 645.871765 105.755219 638.509766 104.007813 C 633.210266 102.690094 629.472046 101.042976 627.294922 99.066406 C 625.117798 97.118484 624.029297 94.311211 624.029297 90.644531 C 624.029297 86.318993 625.726563 82.602226 629.121094 79.494141 C 632.515625 76.386055 637.292297 74.832031 643.451172 74.832031 C 649.294922 74.832031 654.064453 75.992172 657.759766 78.3125 C 661.426453 80.661469 663.531921 84.7005 664.076172 90.429688 L 651.830078 90.429688 C 651.658203 88.854156 651.214172 87.608078 650.498047 86.691406 C 649.151672 85.029938 646.860046 84.199219 643.623047 84.199219 C 640.958984 84.199219 639.061218 84.614578 637.929688 85.445313 C 636.798157 86.276047 636.232422 87.25 636.232422 88.367188 C 636.232422 89.770844 636.833984 90.787758 638.037109 91.417969 C 639.240234 92.076828 643.49408 93.208328 650.798828 94.8125 C 655.66864 95.958344 659.320923 97.691399 661.755859 100.011719 C 664.162109 102.360687 665.365234 105.29686 665.365234 108.820313 C 665.365234 113.460953 663.639343 117.249336 660.1875 120.185547 C 656.735657 123.121758 651.400452 124.589844 644.181641 124.589844 Z M 539.123047 124.460938 C 534.883423 124.460938 531.381531 123.250664 528.617188 120.830078 C 525.852844 118.409492 524.470703 114.979187 524.470703 110.539063 C 524.470703 104.781227 526.690735 100.613289 531.130859 98.035156 C 533.565796 96.6315 537.146484 95.628906 541.873047 95.027344 L 546.041016 94.511719 C 548.304077 94.225258 549.922546 93.867188 550.896484 93.4375 C 552.64386 92.692703 553.517578 91.532562 553.517578 89.957031 C 553.517578 88.03775 552.851563 86.712891 551.519531 85.982422 C 550.1875 85.251953 548.232422 84.886719 545.654297 84.886719 C 542.761047 84.886719 540.712891 85.602859 539.509766 87.035156 C 538.650391 88.095062 538.077454 89.527336 537.791016 91.332031 L 525.974609 91.332031 C 526.232422 87.235657 527.378235 83.869797 529.412109 81.234375 C 532.649109 77.10936 538.20636 75.046875 546.083984 75.046875 C 551.211609 75.046875 555.766235 76.063789 559.748047 78.097656 C 563.729858 80.131523 565.720703 83.970032 565.720703 89.613281 L 565.720703 111.097656 C 565.720703 112.58725 565.749329 114.391922 565.806641 116.511719 C 565.892578 118.115891 566.136047 119.204422 566.537109 119.777344 C 566.938171 120.350266 567.539734 120.822914 568.341797 121.195313 L 568.341797 123 L 555.021484 123 C 554.649109 122.054688 554.391296 121.166672 554.248047 120.335938 C 554.104797 119.505203 553.990234 118.559898 553.904297 117.5 C 552.214172 119.333344 550.266296 120.894531 548.060547 122.183594 C 545.42511 123.701828 542.445984 124.460938 539.123047 124.460938 Z M 215.740234 124.246094 C 211.873032 124.246094 208.764984 123.472664 206.416016 121.925781 C 205.01236 121.009109 203.494156 119.404953 201.861328 117.113281 L 201.861328 123 L 189.873047 123 L 189.873047 59.75 L 202.076172 59.75 L 202.076172 82.265625 C 203.623062 80.088531 205.327469 78.427086 207.189453 77.28125 C 209.395187 75.848953 212.202454 75.132813 215.611328 75.132813 C 221.770218 75.132813 226.589828 77.352852 230.070313 81.792969 C 233.550797 86.233093 235.291016 91.962212 235.291016 98.980469 C 235.291016 106.256538 233.572281 112.286438 230.134766 117.070313 C 226.69725 121.854187 221.899124 124.246094 215.740234 124.246094 Z M 152.232422 124.03125 C 145.300095 124.03125 140.630875 121.539078 138.224609 116.554688 C 136.87825 113.804672 136.205078 109.751328 136.205078 104.394531 L 136.205078 76.164063 L 148.751953 76.164063 L 148.751953 104.394531 C 148.751953 107.058601 149.067047 109.063797 149.697266 110.410156 C 150.814453 112.787766 153.005844 113.976563 156.271484 113.976563 C 160.453796 113.976563 163.318344 112.286469 164.865234 108.90625 C 165.667328 107.072906 166.068359 104.652359 166.068359 101.644531 L 166.068359 76.164063 L 178.486328 76.164063 L 178.486328 123 L 166.583984 123 L 166.583984 116.382813 C 166.469406 116.526047 166.182938 116.955727 165.724609 117.671875 C 165.266281 118.388023 164.722015 119.018227 164.091797 119.5625 C 162.172516 121.281258 160.317719 122.455727 158.527344 123.085938 C 156.736969 123.716148 154.638687 124.03125 152.232422 124.03125 Z M 74.287109 123 L 74.287109 59.664063 L 105.353516 59.664063 C 109.793633 59.75 113.209625 60.294266 115.601563 61.296875 C 117.9935 62.299484 120.020172 63.774727 121.681641 65.722656 C 123.056648 67.326828 124.14518 69.102852 124.947266 71.050781 C 125.749352 72.998711 126.150391 75.218735 126.150391 77.710938 C 126.150391 80.718765 125.391281 83.676422 123.873047 86.583984 C 122.354813 89.491547 119.848328 91.546867 116.353516 92.75 C 119.275406 93.924484 121.345047 95.593094 122.5625 97.755859 C 123.779953 99.918625 124.388672 103.220032 124.388672 107.660156 L 124.388672 111.914063 C 124.388672 114.807304 124.503258 116.769531 124.732422 117.800781 C 125.076172 119.433601 125.87825 120.636719 127.138672 121.410156 L 127.138672 123 L 112.572266 123 C 112.171219 121.596352 111.884766 120.464844 111.712891 119.605469 C 111.369141 117.829422 111.182945 116.010422 111.154297 114.148438 L 111.068359 108.261719 C 111.01107 104.222641 110.273445 101.529953 108.855469 100.183594 C 107.437492 98.837234 104.780609 98.164063 100.884766 98.164063 L 87.220703 98.164063 L 87.220703 123 L 74.287109 123 Z M 385.982422 123 L 385.982422 76.25 L 397.798828 76.25 L 397.798828 83.082031 C 399.374359 80.675766 400.863922 78.942711 402.267578 77.882813 C 404.788422 75.99218 407.982391 75.046875 411.849609 75.046875 C 416.690765 75.046875 420.651031 76.314438 423.730469 78.849609 C 426.809906 81.384773 428.349609 85.588516 428.349609 91.460938 L 428.349609 123 L 415.802734 123 L 415.802734 94.511719 C 415.802734 92.048172 415.473297 90.157562 414.814453 88.839844 C 413.611328 86.433586 411.319672 85.230469 407.939453 85.230469 C 403.785797 85.230469 400.935547 86.992172 399.388672 90.515625 C 398.586578 92.377609 398.185547 94.755203 398.185547 97.648438 L 398.185547 123 L 385.982422 123 Z M 465.388672 123 L 465.388672 59.664063 L 496.455078 59.664063 C 500.895203 59.75 504.311188 60.294266 506.703125 61.296875 C 509.095062 62.299484 511.121735 63.774727 512.783203 65.722656 C 514.158203 67.326828 515.246765 69.102852 516.048828 71.050781 C 516.850891 72.998711 517.251953 75.218735 517.251953 77.710938 C 517.251953 80.718765 516.492859 83.676422 514.974609 86.583984 C 513.45636 89.491547 510.94989 91.546867 507.455078 92.75 C 510.376953 93.924484 512.446594 95.593094 513.664063 97.755859 C 514.881531 99.918625 515.490234 103.220032 515.490234 107.660156 L 515.490234 111.914063 C 515.490234 114.807304 515.604797 116.769531 515.833984 117.800781 C 516.177734 119.433601 516.979797 120.636719 518.240234 121.410156 L 518.240234 123 L 503.673828 123 C 503.272797 121.596352 502.986328 120.464844 502.814453 119.605469 C 502.470703 117.829422 502.284515 116.010422 502.255859 114.148438 L 502.169922 108.261719 C 502.11264 104.222641 501.375 101.529953 499.957031 100.183594 C 498.539063 98.837234 495.882172 98.164063 491.986328 98.164063 L 478.322266 98.164063 L 478.322266 123 L 465.388672 123 Z M 576.763672 123 L 576.763672 76.164063 L 589.181641 76.164063 L 589.181641 123 L 576.763672 123 Z M 601.298828 123 L 601.298828 59.664063 L 613.544922 59.664063 L 613.544922 123 L 601.298828 123 Z M 691.671875 122.599609 C 691.671875 122.599609 704.754456 62.906303 661.435547 38.734375 C 651.992004 34.14257 621.929016 16.987137 572.71875 53.375 C 571.159302 52.075424 569.685547 51.037109 569.685547 51.037109 C 569.685547 51.037109 614.737122 6.070724 664.900391 11.095703 C 690.198608 13.348297 721.216248 36.307648 739.410156 66.630859 C 757.604065 96.954071 760.115234 122.599609 760.115234 122.599609 L 691.671875 122.599609 Z M 677.636719 119.914063 C 678.416443 116.535194 679.195007 112.722366 679.714844 108.650391 L 689.072266 105.271484 C 688.898987 109.863289 688.46637 113.588364 688.033203 116.1875 L 677.636719 119.914063 Z M 542.732422 115.566406 C 545.367859 115.566406 547.795532 114.792976 550.015625 113.246094 C 552.235718 111.699211 553.388672 108.877625 553.474609 104.78125 L 553.474609 100.226563 C 552.701172 100.713547 551.920593 101.107422 551.132813 101.408203 C 550.345032 101.708984 549.263672 101.988281 547.888672 102.246094 L 545.138672 102.761719 C 542.560547 103.220055 540.712891 103.778641 539.595703 104.4375 C 537.705078 105.554688 536.759766 107.28775 536.759766 109.636719 C 536.759766 111.727875 537.346985 113.231766 538.521484 114.148438 C 539.667297 115.09375 541.070984 115.566406 542.732422 115.566406 Z M 212.474609 114.148438 C 215.625671 114.148438 218.07486 112.873703 219.822266 110.324219 C 221.569672 107.774734 222.443359 104.423195 222.443359 100.269531 C 222.443359 96.946602 222.013672 94.196625 221.154297 92.019531 C 219.521469 87.894516 216.513687 85.832031 212.130859 85.832031 C 207.690735 85.832031 204.639984 87.851547 202.978516 91.890625 C 202.119141 94.03907 201.689453 96.817696 201.689453 100.226563 C 201.689453 104.237 202.577469 107.559891 204.353516 110.195313 C 206.129562 112.830734 208.836563 114.148438 212.474609 114.148438 Z M 346.451172 113.546875 C 351.69339 113.546875 355.861298 111.613297 358.955078 107.746094 C 362.020203 103.878891 363.552734 98.378937 363.552734 91.246094 C 363.552734 84.141899 362.013031 78.649101 358.933594 74.767578 C 355.854156 70.886055 351.69339 68.945313 346.451172 68.945313 C 341.208954 68.945313 337.026703 70.878891 333.904297 74.746094 C 330.781891 78.613297 329.220703 84.113251 329.220703 91.246094 C 329.220703 98.378937 330.781891 103.878891 333.904297 107.746094 C 337.026703 111.613297 341.208954 113.546875 346.451172 113.546875 Z M 756.216797 91.236328 C 755.090515 88.290649 753.270996 84.045441 751.884766 80.839844 L 761.847656 77.201172 C 763.493774 80.926598 765.313293 85.258438 766.179688 87.597656 L 756.216797 91.236328 Z M 680.755859 88.810547 C 680.409302 85.431671 679.801941 82.052704 678.935547 78.673828 L 685.173828 73.736328 C 686.30011 76.941933 687.080322 80.146667 687.773438 83.265625 L 680.755859 88.810547 Z M 87.220703 87.679688 L 102.216797 87.679688 C 105.195976 87.679688 107.430328 87.335938 108.919922 86.648438 C 111.555351 85.445305 112.873047 83.067719 112.873047 79.515625 C 112.873047 75.677071 111.59832 73.098969 109.048828 71.78125 C 107.616531 71.036453 105.468117 70.664063 102.603516 70.664063 L 87.220703 70.664063 L 87.220703 87.679688 Z M 478.322266 87.679688 L 493.318359 87.679688 C 496.297546 87.679688 498.531891 87.335938 500.021484 86.648438 C 502.656921 85.445305 503.974609 83.067719 503.974609 79.515625 C 503.974609 75.677071 502.69989 73.098969 500.150391 71.78125 C 498.718079 71.036453 496.569672 70.664063 493.705078 70.664063 L 478.322266 70.664063 L 478.322266 87.679688 Z M 576.763672 70.578125 L 576.763672 59.277344 L 589.181641 59.277344 L 589.181641 70.578125 L 576.763672 70.578125 Z M 671.052734 61.607422 C 669.579895 59.441483 667.845459 57.447746 665.939453 55.455078 L 669.839844 49.564453 C 671.83252 51.38385 673.651428 53.37648 675.210938 55.369141 L 671.052734 61.607422 Z M 731.611328 48.957031 C 729.791931 46.617813 727.799988 44.279221 725.720703 42.113281 L 731.871094 36.742188 C 734.123657 38.908127 736.290527 41.074287 738.283203 43.240234 L 731.611328 48.957031 Z M 651.644531 45.144531 C 649.132019 43.931602 646.619934 42.893021 644.107422 42.113281 L 646.013672 36.394531 C 648.959351 37.26091 651.472717 38.214943 653.638672 39.167969 L 651.644531 45.144531 Z M 617.509766 40.8125 L 617.164063 35.441406 C 620.109741 34.834946 622.967834 34.489685 625.740234 34.316406 L 626.085938 39.773438 C 623.226868 39.860077 620.368835 40.206032 617.509766 40.8125 Z M 699.642578 20.193359 C 697.390015 18.807152 695.223267 17.507149 692.970703 16.380859 L 696.869141 10.404297 C 699.035095 11.530579 701.28772 12.742706 703.626953 14.128906 L 699.642578 20.193359 Z M 617.509766 15.949219 L 617.164063 10.144531 C 617.943787 9.711349 620.108215 8.670807 625.566406 7.111328 L 625.914063 12.830078 C 623.054993 13.783096 620.282227 14.822922 617.509766 15.949219 Z M 665.333984 7.630859 C 662.821472 7.370956 660.309387 7.285156 657.796875 7.285156 L 656.929688 7.285156 L 658.662109 2 C 661.3479 2 664.121399 2.172989 666.980469 2.519531 L 665.333984 7.630859 Z"/>
    <g id="Group-copy">
        <linearGradient id="linearGradient1" x1="61.233696" y1="133.287766" x2="47.127223" y2="108.382041" gradientUnits="userSpaceOnUse" gradientTransform="matrix(0.998135 -0.061049 0.061049 0.998135 -6.063217 2.796445)">
            <stop offset="1e-05" stop-color="#fb7655" stop-opacity="1"/>
            <stop offset="0" stop-color="#fb7655" stop-opacity="1"/>
            <stop offset="0.41" stop-color="#e42b1e" stop-opacity="1"/>
            <stop offset="0.99" stop-color="#990000" stop-opacity="1"/>
            <stop offset="1" stop-color="#990000" stop-opacity="1"/>
        </linearGradient>
        <path id="polygon3282" fill="url(#linearGradient1)" fill-rule="evenodd" stroke="none" d="M 54.508518 103.840813 L 17.786068 128.798859 L 66.92186 122.432938 L 67.679085 72.44828 Z"/>
        <linearGradient id="linearGradient2" x1="68.754758" y1="111.435327" x2="50.574697" y2="99.235401" gradientUnits="userSpaceOnUse" gradientTransform="matrix(0.998135 -0.061049 0.061049 0.998135 -6.499427 3.755488)">
            <stop offset="1e-05" stop-color="#871101" stop-opacity="1"/>
            <stop offset="0" stop-color="#871101" stop-opacity="1"/>
            <stop offset="0.99" stop-color="#911209" stop-opacity="1"/>
            <stop offset="1" stop-color="#911209" stop-opacity="1"/>
        </linearGradient>
        <path id="polygon3293" fill="url(#linearGradient2)" fill-rule="evenodd" stroke="none" d="M 67.000633 122.393967 L 60.969559 93.382973 L 50.350986 109.342834 Z"/>
        <linearGradient id="linearGradient3" x1="55.162027" y1="134.105371" x2="36.982545" y2="121.905816" gradientUnits="userSpaceOnUse" gradientTransform="matrix(0.998135 -0.061049 0.061049 0.998135 -7.511536 2.822082)">
            <stop offset="1e-05" stop-color="#871101" stop-opacity="1"/>
            <stop offset="0" stop-color="#871101" stop-opacity="1"/>
            <stop offset="0.99" stop-color="#911209" stop-opacity="1"/>
            <stop offset="1" stop-color="#911209" stop-opacity="1"/>
        </linearGradient>
        <path id="polygon3304" fill="url(#linearGradient3)" fill-rule="evenodd" stroke="none" d="M 67.057899 122.390465 L 35.839817 121.851807 L 17.947239 128.725098 Z"/>
        <linearGradient id="linearGradient4" x1="16.437804" y1="105.168865" x2="19.256103" y2="123.485074" gradientUnits="userSpaceOnUse" gradientTransform="matrix(0.998135 -0.061049 0.061049 0.998135 -7.054824 1.219855)">
            <stop offset="1e-05" stop-color="#ffffff" stop-opacity="1"/>
            <stop offset="0" stop-color="#ffffff" stop-opacity="1"/>
            <stop offset="0.23" stop-color="#e57252" stop-opacity="1"/>
            <stop offset="0.46" stop-color="#de3b20" stop-opacity="1"/>
            <stop offset="0.99" stop-color="#a60003" stop-opacity="1"/>
            <stop offset="1" stop-color="#a60003" stop-opacity="1"/>
        </linearGradient>
        <path id="polygon3319" fill="url(#linearGradient4)" fill-rule="evenodd" stroke="none" d="M 17.991423 128.728821 L 24.197674 102.827385 L 7.34188 107.523964 Z"/>
        <linearGradient id="linearGradient5" x1="34.650881" y1="86.85269" x2="35.689292" y2="105.545541" gradientUnits="userSpaceOnUse" gradientTransform="matrix(0.998135 -0.061049 0.061049 0.998135 -5.81139 2.35951)">
            <stop offset="1e-05" stop-color="#ffffff" stop-opacity="1"/>
            <stop offset="0" stop-color="#ffffff" stop-opacity="1"/>
            <stop offset="0.23" stop-color="#e4714e" stop-opacity="1"/>
            <stop offset="0.56" stop-color="#be1a0d" stop-opacity="1"/>
            <stop offset="0.99" stop-color="#a80d00" stop-opacity="1"/>
            <stop offset="1" stop-color="#a80d00" stop-opacity="1"/>
        </linearGradient>
        <path id="polygon3334" fill="url(#linearGradient5)" fill-rule="evenodd" stroke="none" d="M 50.353104 109.427231 L 41.500595 81.890594 L 22.234604 102.298248 Z"/>
        <linearGradient id="linearGradient6" x1="50.552468" y1="68.430879" x2="53.661182" y2="81.827871" gradientUnits="userSpaceOnUse" gradientTransform="matrix(0.998135 -0.061049 0.061049 0.998135 -4.443302 3.421883)">
            <stop offset="1e-05" stop-color="#ffffff" stop-opacity="1"/>
            <stop offset="0" stop-color="#ffffff" stop-opacity="1"/>
            <stop offset="0.18" stop-color="#e46342" stop-opacity="1"/>
            <stop offset="0.4" stop-color="#c82410" stop-opacity="1"/>
            <stop offset="0.99" stop-color="#a80d00" stop-opacity="1"/>
            <stop offset="1" stop-color="#a80d00" stop-opacity="1"/>
        </linearGradient>
        <path id="polygon3349" fill="url(#linearGradient6)" fill-rule="evenodd" stroke="none" d="M 66.560661 80.753464 L 46.27626 66.156235 L 41.960262 83.877716 Z"/>
        <linearGradient id="linearGradient7" x1="40.384342" y1="64.097785" x2="53.78042" y2="57.399728" gradientUnits="userSpaceOnUse" gradientTransform="matrix(0.998135 -0.061049 0.061049 0.998135 -3.792668 2.996431)">
            <stop offset="1e-05" stop-color="#ffffff" stop-opacity="1"/>
            <stop offset="0" stop-color="#ffffff" stop-opacity="1"/>
            <stop offset="0.54" stop-color="#c81f11" stop-opacity="1"/>
            <stop offset="0.99" stop-color="#bf0905" stop-opacity="1"/>
            <stop offset="1" stop-color="#bf0905" stop-opacity="1"/>
        </linearGradient>
        <path id="polygon3362" fill="url(#linearGradient7)" fill-rule="evenodd" stroke="none" d="M 56.216728 59.901527 L 45.238258 66.875687 L 37.680523 60.950714 Z"/>
        <linearGradient id="linearGradient8" x1="4.100896" y1="101.169656" x2="5.203464" y2="112.208526" gradientUnits="userSpaceOnUse" gradientTransform="matrix(0.998135 -0.061049 0.061049 0.998135 -6.502466 0.514459)">
            <stop offset="1e-05" stop-color="#ffffff" stop-opacity="1"/>
            <stop offset="0" stop-color="#ffffff" stop-opacity="1"/>
            <stop offset="0.31" stop-color="#de4024" stop-opacity="1"/>
            <stop offset="0.99" stop-color="#bf190b" stop-opacity="1"/>
            <stop offset="1" stop-color="#bf190b" stop-opacity="1"/>
        </linearGradient>
        <path id="polygon3375" fill="url(#linearGradient8)" fill-rule="evenodd" stroke="none" d="M 3.369738 116.327957 L 7.598713 107.355766 L 3.11579 97.249451 Z"/>
        <path id="path3377" fill="#ffffff" fill-rule="evenodd" stroke="none" d="M 2.839786 96.938339 L 7.385848 107.690002 L 23.988106 102.88382 L 42.11396 83.847694 L 46.483868 66.288925 L 37.57515 60.781334 L 23.388517 67.10302 C 19.074425 71.637421 10.712864 80.59864 10.402524 80.776543 C 10.095759 80.957603 5.191908 91.776672 2.839786 96.938339 Z"/>
        <linearGradient id="linearGradient9" x1="-4.825674" y1="113.970317" x2="47.003971" y2="60.674955" gradientUnits="userSpaceOnUse" gradientTransform="matrix(0.998135 -0.061049 0.061049 0.998135 -5.083625 1.652219)">
            <stop offset="1e-05" stop-color="#bd0012" stop-opacity="1"/>
            <stop offset="0" stop-color="#bd0012" stop-opacity="1"/>
            <stop offset="0.07" stop-color="#ffffff" stop-opacity="1"/>
            <stop offset="0.17" stop-color="#ffffff" stop-opacity="1"/>
            <stop offset="0.27" stop-color="#c82f1c" stop-opacity="1"/>
            <stop offset="0.33" stop-color="#820c01" stop-opacity="1"/>
            <stop offset="0.46" stop-color="#a31601" stop-opacity="1"/>
            <stop offset="0.72" stop-color="#b31301" stop-opacity="1"/>
            <stop offset="0.99" stop-color="#e82609" stop-opacity="1"/>
            <stop offset="1" stop-color="#e82609" stop-opacity="1"/>
        </linearGradient>
        <path id="path3400" fill="url(#linearGradient9)" fill-rule="evenodd" stroke="none" d="M 15.235101 76.365959 C 24.547882 65.92981 36.973412 59.340523 42.180862 63.989113 C 47.385281 68.637878 42.922638 80.981972 33.60965 91.414749 C 24.296663 101.847527 12.049036 108.747162 6.844953 104.098358 C 1.637707 99.45314 5.922113 86.798737 15.235101 76.365959 Z"/>
        <linearGradient id="linearGradient10" x1="36.779668" y1="118.832975" x2="21.168091" y2="114.979909" gradientUnits="userSpaceOnUse" gradientTransform="matrix(0.998135 -0.061049 0.061049 0.998135 -6.954231 2.280808)">
            <stop offset="1e-05" stop-color="#8c0c01" stop-opacity="1"/>
            <stop offset="0" stop-color="#8c0c01" stop-opacity="1"/>
            <stop offset="0.54" stop-color="#990c00" stop-opacity="1"/>
            <stop offset="0.99" stop-color="#a80d0e" stop-opacity="1"/>
            <stop offset="1" stop-color="#a80d0e" stop-opacity="1"/>
        </linearGradient>
        <path id="path3413" fill="url(#linearGradient10)" fill-rule="evenodd" stroke="none" d="M 17.990805 128.718719 L 24.131475 102.740143 L 50.208942 109.392097 C 41.492283 118.628624 31.656069 126.587883 17.990805 128.718719 Z"/>
        <linearGradient id="linearGradient11" x1="62.429789" y1="98.755472" x2="48.560977" y2="86.325272" gradientUnits="userSpaceOnUse" gradientTransform="matrix(0.998135 -0.061049 0.061049 0.998135 -5.710209 3.547394)">
            <stop offset="1e-05" stop-color="#7e110b" stop-opacity="1"/>
            <stop offset="0" stop-color="#7e110b" stop-opacity="1"/>
            <stop offset="0.99" stop-color="#9e0c00" stop-opacity="1"/>
            <stop offset="1" stop-color="#9e0c00" stop-opacity="1"/>
        </linearGradient>
        <path id="path3424" fill="url(#linearGradient11)" fill-rule="evenodd" stroke="none" d="M 42.144577 83.795441 L 50.30072 109.400009 C 57.528324 100.805702 63.927002 91.650085 66.661736 80.642464 L 42.144577 83.795441 Z"/>
        <linearGradient id="linearGradient12" x1="66.026279" y1="75.788713" x2="59.117965" y2="68.40321" gradientUnits="userSpaceOnUse" gradientTransform="matrix(0.998135 -0.061049 0.061049 0.998135 -4.204363 3.615144)">
            <stop offset="1e-05" stop-color="#79130d" stop-opacity="1"/>
            <stop offset="0" stop-color="#79130d" stop-opacity="1"/>
            <stop offset="0.99" stop-color="#9e120b" stop-opacity="1"/>
            <stop offset="1" stop-color="#9e120b" stop-opacity="1"/>
        </linearGradient>
        <path id="path3435" fill="url(#linearGradient12)" fill-rule="evenodd" stroke="none" d="M 66.60273 80.777939 C 68.745285 72.687386 68.655853 61.2743 56.136368 59.919968 L 46.313183 66.157356 L 66.60273 80.777939 Z"/>
        <path id="path3437" fill="#9e1209" fill-rule="evenodd" stroke="none" d="M 3.362733 116.213425 C 4.527023 129.278793 13.981335 128.896317 18.010553 128.765182 L 7.392658 107.635483 L 3.362733 116.213425 Z"/>
        <radialGradient id="radialGradient1" cx="50.268371" cy="86.581703" r="16.995515" fx="50.268371" fy="86.581703" gradientUnits="userSpaceOnUse" gradientTransform="matrix(0.998135 -0.061049 0.061049 0.998135 -5.260015 3.501058)">
            <stop offset="1e-05" stop-color="#a80d00" stop-opacity="1"/>
            <stop offset="0" stop-color="#a80d00" stop-opacity="1"/>
            <stop offset="0.99" stop-color="#7e0e08" stop-opacity="1"/>
            <stop offset="1" stop-color="#7e0e08" stop-opacity="1"/>
        </radialGradient>
        <path id="path3448" fill="url(#radialGradient1)" fill-rule="evenodd" stroke="none" d="M 42.183769 83.833618 C 48.342506 87.118851 60.75312 93.71405 61.003906 93.833961 C 61.393841 94.023132 65.668297 85.457291 66.467026 80.71524 L 42.183769 83.833618 Z"/>
        <radialGradient id="radialGradient2" cx="28.168416" cy="110.072572" r="22.593267" fx="28.168416" fy="110.072572" gradientUnits="userSpaceOnUse" gradientTransform="matrix(0.998135 -0.061049 0.061049 0.998135 -6.760884 2.497161)">
            <stop offset="1e-05" stop-color="#a30c00" stop-opacity="1"/>
            <stop offset="0" stop-color="#a30c00" stop-opacity="1"/>
            <stop offset="0.99" stop-color="#800e08" stop-opacity="1"/>
            <stop offset="1" stop-color="#800e08" stop-opacity="1"/>
        </radialGradient>
        <path id="path3459" fill="url(#radialGradient2)" fill-rule="evenodd" stroke="none" d="M 24.121368 102.740761 L 35.630817 121.972786 C 41.516087 118.299187 46.036751 113.985451 50.139027 109.409897 L 24.121368 102.740761 Z"/>
        <linearGradient id="linearGradient13" x1="12.491741" y1="129.061881" x2="6.861894" y2="109.961634" gradientUnits="userSpaceOnUse" gradientTransform="matrix(0.998135 -0.061049 0.061049 0.998135 -7.184923 0.940559)">
            <stop offset="1e-05" stop-color="#8b2114" stop-opacity="1"/>
            <stop offset="0" stop-color="#8b2114" stop-opacity="1"/>
            <stop offset="0.43" stop-color="#9e100a" stop-opacity="1"/>
            <stop offset="0.99" stop-color="#b3100c" stop-opacity="1"/>
            <stop offset="1" stop-color="#b3100c" stop-opacity="1"/>
        </linearGradient>
        <path id="path3472" fill="url(#linearGradient13)" fill-rule="evenodd" stroke="none" d="M 7.353882 107.664909 L 6.957573 125.122986 C 9.939713 128.714096 13.746084 128.809265 17.699821 128.27327 C 14.388929 121.297333 7.774089 107.348419 7.353882 107.664909 Z"/>
        <linearGradient id="linearGradient14" x1="52.4758" y1="62.945476" x2="65.097461" y2="68.516869" gradientUnits="userSpaceOnUse" gradientTransform="matrix(0.998135 -0.061049 0.061049 0.998135 -3.812787 3.562565)">
            <stop offset="1e-05" stop-color="#b31000" stop-opacity="1"/>
            <stop offset="0" stop-color="#b31000" stop-opacity="1"/>
            <stop offset="0.44" stop-color="#910f08" stop-opacity="1"/>
            <stop offset="0.99" stop-color="#791c12" stop-opacity="1"/>
            <stop offset="1" stop-color="#791c12" stop-opacity="1"/>
        </linearGradient>
        <path id="path3485" fill="url(#linearGradient14)" fill-rule="evenodd" stroke="none" d="M 46.255562 66.204842 L 66.882301 67.824097 C 65.507965 63.265663 61.973591 60.486038 56.203255 59.902351 L 46.255562 66.204842 Z"/>
    </g>
</svg>
